<svg width="100%" viewBox="0 0 680 420" role="img" xmlns="http://www.w3.org/2000/svg">
<title>Planta Industrial</title>
<desc>Ilustração de planta industrial com equipamentos, tubulações e estrutura de andaime</desc>
<rect width="680" height="420" fill="#1e1418"/>
<line x1="0" y1="60" x2="680" y2="60" stroke="#2d1e24" stroke-width="0.5" opacity="0.5"/>
<line x1="0" y1="120" x2="680" y2="120" stroke="#2d1e24" stroke-width="0.5" opacity="0.5"/>
<line x1="0" y1="180" x2="680" y2="180" stroke="#2d1e24" stroke-width="0.5" opacity="0.5"/>
<line x1="0" y1="240" x2="680" y2="240" stroke="#2d1e24" stroke-width="0.5" opacity="0.5"/>
<line x1="0" y1="300" x2="680" y2="300" stroke="#2d1e24" stroke-width="0.5" opacity="0.5"/>
<line x1="0" y1="360" x2="680" y2="360" stroke="#2d1e24" stroke-width="0.5" opacity="0.5"/>
<line x1="80" y1="0" x2="80" y2="420" stroke="#2d1e24" stroke-width="0.5" opacity="0.5"/>
<line x1="160" y1="0" x2="160" y2="420" stroke="#2d1e24" stroke-width="0.5" opacity="0.5"/>
<line x1="240" y1="0" x2="240" y2="420" stroke="#2d1e24" stroke-width="0.5" opacity="0.5"/>
<line x1="320" y1="0" x2="320" y2="420" stroke="#2d1e24" stroke-width="0.5" opacity="0.5"/>
<line x1="400" y1="0" x2="400" y2="420" stroke="#2d1e24" stroke-width="0.5" opacity="0.5"/>
<line x1="480" y1="0" x2="480" y2="420" stroke="#2d1e24" stroke-width="0.5" opacity="0.5"/>
<line x1="560" y1="0" x2="560" y2="420" stroke="#2d1e24" stroke-width="0.5" opacity="0.5"/>
<line x1="640" y1="0" x2="640" y2="420" stroke="#2d1e24" stroke-width="0.5" opacity="0.5"/>
<rect x="0" y="310" width="680" height="110" fill="#140e10"/>
<rect x="60" y="90" width="8" height="225" fill="#4a2830" rx="1"/>
<rect x="140" y="90" width="8" height="225" fill="#4a2830" rx="1"/>
<rect x="60" y="150" width="88" height="6" fill="#5a3040"/>
<rect x="60" y="210" width="88" height="6" fill="#5a3040"/>
<rect x="60" y="270" width="88" height="6" fill="#5a3040"/>
<rect x="56" y="88" width="16" height="10" fill="#e85d04" rx="1"/>
<rect x="136" y="88" width="16" height="10" fill="#e85d04" rx="1"/>
<rect x="200" y="110" width="100" height="140" fill="#2a1820" stroke="#5a2830" stroke-width="1.5" rx="3"/>
<rect x="195" y="106" width="110" height="12" fill="#5a2830" rx="2"/>
<rect x="235" y="106" width="30" height="20" fill="#3a2028" rx="1"/>
<rect x="215" y="130" width="70" height="50" fill="#1e1018" stroke="#5a2830" stroke-width="1" rx="2"/>
<rect x="210" y="180" width="80" height="8" fill="#5a2830"/>
<rect x="230" y="188" width="40" height="40" fill="#2a1820" stroke="#5a2830" stroke-width="1" rx="1"/>
<rect x="240" y="230" width="20" height="20" fill="#3a1e28" rx="1"/>
<circle cx="250" cy="240" r="6" fill="#e85d04" opacity="0.6"/>
<circle cx="250" cy="240" r="3" fill="#ff9900" opacity="0.8"/>
<rect x="200" y="246" width="100" height="8" fill="#5a2830"/>
<rect x="195" y="248" width="115" height="6" fill="#4a2028" rx="1"/>
<rect x="360" y="80" width="70" height="200" fill="#2a1820" stroke="#5a2830" stroke-width="1.5" rx="4"/>
<rect x="356" y="76" width="78" height="12" fill="#5a2830" rx="2"/>
<rect x="385" y="52" width="18" height="32" fill="#3a2028" rx="2"/>
<ellipse cx="394" cy="50" rx="12" ry="6" fill="#2a1820" stroke="#5a2830" stroke-width="1"/>
<rect x="370" y="106" width="50" height="6" fill="#5a2830"/>
<rect x="370" y="160" width="50" height="6" fill="#5a2830"/>
<rect x="370" y="214" width="50" height="6" fill="#5a2830"/>
<circle cx="395" cy="133" r="18" fill="#1e1018" stroke="#5a2830" stroke-width="1.5"/>
<circle cx="395" cy="133" r="10" fill="#2a1820" stroke="#e85d04" stroke-width="1"/>
<circle cx="395" cy="133" r="4" fill="#e85d04" opacity="0.7"/>
<rect x="480" y="100" width="140" height="180" fill="#241418" stroke="#5a2830" stroke-width="1" rx="2"/>
<rect x="476" y="96" width="148" height="12" fill="#5a2830" rx="1"/>
<rect x="490" y="116" width="110" height="30" fill="#1e1018" stroke="#5a2830" stroke-width="0.5" rx="1"/>
<rect x="490" y="154" width="110" height="30" fill="#1e1018" stroke="#5a2830" stroke-width="0.5" rx="1"/>
<rect x="490" y="192" width="110" height="30" fill="#1e1018" stroke="#5a2830" stroke-width="0.5" rx="1"/>
<rect x="490" y="230" width="110" height="30" fill="#1e1018" stroke="#5a2830" stroke-width="0.5" rx="1"/>
<rect x="502" y="122" width="20" height="18" fill="#3a1e28" rx="1"/>
<rect x="536" y="122" width="20" height="18" fill="#3a1e28" rx="1"/>
<rect x="570" y="122" width="20" height="18" fill="#3a1e28" rx="1"/>
<circle cx="512" cy="131" r="5" fill="#e85d04" opacity="0.5"/>
<circle cx="546" cy="131" r="5" fill="#ff9900" opacity="0.6"/>
<circle cx="580" cy="131" r="5" fill="#e85d04" opacity="0.4"/>
<rect x="502" y="160" width="86" height="18" fill="#2a1820" rx="1"/>
<rect x="502" y="198" width="86" height="18" fill="#2a1820" rx="1"/>
<rect x="502" y="236" width="86" height="18" fill="#2a1820" rx="1"/>
<rect x="143" y="252" width="60" height="6" fill="#5a2830"/>
<rect x="296" y="252" width="66" height="6" fill="#5a2830"/>
<rect x="428" y="252" width="54" height="6" fill="#5a2830"/>
<rect x="140" y="246" width="6" height="18" fill="#5a2830" rx="1"/>
<rect x="300" y="246" width="6" height="18" fill="#5a2830" rx="1"/>
<rect x="430" y="246" width="6" height="18" fill="#5a2830" rx="1"/>
<rect x="0" y="316" width="680" height="6" fill="#e85d04" opacity="0.9"/>
<text x="340" y="395" text-anchor="middle" fill="#e85d04" font-size="13" font-family="sans-serif" font-weight="700" letter-spacing="3">PLANTA INDUSTRIAL</text>
</svg>
