<svg width="100%" viewBox="0 0 680 420" role="img" xmlns="http://www.w3.org/2000/svg">
<title>Usina Sucroenergética</title>
<desc>Ilustração de usina sucroenergética com chaminés, silos e elementos industriais</desc>
<rect width="680" height="420" fill="#1a2a1a"/>
<rect x="0" y="0" width="680" height="420" fill="none" stroke="#2d4a2d" stroke-width="40"/>
<line x1="0" y1="60" x2="680" y2="60" stroke="#2d4a2d" stroke-width="0.5" opacity="0.4"/>
<line x1="0" y1="120" x2="680" y2="120" stroke="#2d4a2d" stroke-width="0.5" opacity="0.4"/>
<line x1="0" y1="180" x2="680" y2="180" stroke="#2d4a2d" stroke-width="0.5" opacity="0.4"/>
<line x1="0" y1="240" x2="680" y2="240" stroke="#2d4a2d" stroke-width="0.5" opacity="0.4"/>
<line x1="0" y1="300" x2="680" y2="300" stroke="#2d4a2d" stroke-width="0.5" opacity="0.4"/>
<line x1="0" y1="360" x2="680" y2="360" stroke="#2d4a2d" stroke-width="0.5" opacity="0.4"/>
<line x1="80" y1="0" x2="80" y2="420" stroke="#2d4a2d" stroke-width="0.5" opacity="0.4"/>
<line x1="160" y1="0" x2="160" y2="420" stroke="#2d4a2d" stroke-width="0.5" opacity="0.4"/>
<line x1="240" y1="0" x2="240" y2="420" stroke="#2d4a2d" stroke-width="0.5" opacity="0.4"/>
<line x1="320" y1="0" x2="320" y2="420" stroke="#2d4a2d" stroke-width="0.5" opacity="0.4"/>
<line x1="400" y1="0" x2="400" y2="420" stroke="#2d4a2d" stroke-width="0.5" opacity="0.4"/>
<line x1="480" y1="0" x2="480" y2="420" stroke="#2d4a2d" stroke-width="0.5" opacity="0.4"/>
<line x1="560" y1="0" x2="560" y2="420" stroke="#2d4a2d" stroke-width="0.5" opacity="0.4"/>
<line x1="640" y1="0" x2="640" y2="420" stroke="#2d4a2d" stroke-width="0.5" opacity="0.4"/>
<rect x="0" y="330" width="680" height="90" fill="#141f14"/>
<rect x="0" y="320" width="680" height="15" fill="#1f301f"/>
<rect x="60" y="180" width="90" height="150" fill="#1e3020" stroke="#2a4030" stroke-width="1"/>
<rect x="55" y="175" width="100" height="12" fill="#2a4030"/>
<rect x="65" y="140" width="12" height="48" fill="#253828" rx="2"/>
<rect x="83" y="120" width="14" height="68" fill="#253828" rx="2"/>
<rect x="103" y="132" width="12" height="56" fill="#253828" rx="2"/>
<ellipse cx="71" cy="136" rx="8" ry="6" fill="#c8e6c9" opacity="0.15"/>
<ellipse cx="71" cy="118" rx="10" ry="14" fill="#c8e6c9" opacity="0.08"/>
<ellipse cx="90" cy="114" rx="8" ry="6" fill="#c8e6c9" opacity="0.12"/>
<ellipse cx="90" cy="96" rx="11" ry="16" fill="#c8e6c9" opacity="0.06"/>
<ellipse cx="109" cy="128" rx="8" ry="5" fill="#c8e6c9" opacity="0.1"/>
<ellipse cx="109" cy="112" rx="9" ry="14" fill="#c8e6c9" opacity="0.07"/>
<rect x="170" y="200" width="200" height="130" fill="#1a2d1e" stroke="#2a4030" stroke-width="1"/>
<rect x="165" y="195" width="210" height="12" fill="#253828"/>
<rect x="200" y="160" width="140" height="48" fill="#1e3522" stroke="#2a4030" stroke-width="0.5"/>
<rect x="195" y="155" width="150" height="10" fill="#2a4030"/>
<rect x="185" y="230" width="24" height="70" fill="#162018" rx="1"/>
<rect x="220" y="230" width="24" height="70" fill="#162018" rx="1"/>
<rect x="296" y="230" width="24" height="70" fill="#162018" rx="1"/>
<rect x="330" y="230" width="24" height="70" fill="#162018" rx="1"/>
<rect x="185" y="224" width="170" height="10" fill="#1e3020"/>
<rect x="400" y="220" width="60" height="110" fill="#1e2d1e" stroke="#2a4030" stroke-width="1" rx="2"/>
<rect x="420" y="250" width="20" height="60" fill="#162018" rx="1"/>
<rect x="480" y="230" width="50" height="100" fill="#1e2d1e" stroke="#2a4030" stroke-width="1" rx="2"/>
<rect x="497" y="255" width="16" height="55" fill="#162018" rx="1"/>
<rect x="560" y="200" width="80" height="130" fill="#1a2d1e" stroke="#2a4030" stroke-width="1"/>
<rect x="555" y="195" width="90" height="10" fill="#253828"/>
<rect x="568" y="140" width="16" height="65" fill="#1e3020" rx="2"/>
<rect x="592" y="150" width="16" height="55" fill="#1e3020" rx="2"/>
<ellipse cx="576" cy="136" rx="9" ry="6" fill="#c8e6c9" opacity="0.12"/>
<ellipse cx="576" cy="118" rx="11" ry="16" fill="#c8e6c9" opacity="0.06"/>
<ellipse cx="600" cy="145" rx="9" ry="6" fill="#c8e6c9" opacity="0.1"/>
<ellipse cx="600" cy="128" rx="10" ry="14" fill="#c8e6c9" opacity="0.07"/>
<rect x="200" y="278" width="14" height="10" fill="#e85d04" opacity="0.6" rx="1"/>
<rect x="260" y="278" width="14" height="10" fill="#e85d04" opacity="0.5" rx="1"/>
<rect x="320" y="278" width="14" height="10" fill="#e85d04" opacity="0.4" rx="1"/>
<circle cx="210" cy="274" r="4" fill="#ff8c00" opacity="0.5"/>
<circle cx="265" cy="272" r="3" fill="#ff8c00" opacity="0.4"/>
<rect x="0" y="326" width="680" height="6" fill="#e85d04" opacity="0.8"/>
<text x="340" y="395" text-anchor="middle" fill="#e85d04" font-size="13" font-family="sans-serif" font-weight="700" letter-spacing="3">USINA SUCROENERGÉTICA</text>
</svg>
